<?xml version="1.0" encoding="utf-8"?>
<!-- Uploaded to: SVG Repo, www.svgrepo.com, Generator: SVG Repo Mixer Tools -->
<!DOCTYPE svg PUBLIC "-//W3C//DTD SVG 1.1//EN" "http://www.w3.org/Graphics/SVG/1.1/DTD/svg11.dtd">
<svg fill="#000000" version="1.1" id="Layer_1" xmlns="http://www.w3.org/2000/svg" xmlns:xlink="http://www.w3.org/1999/xlink" 
	 width="800px" height="800px" viewBox="0 0 300 300" enable-background="new 0 0 300 300" xml:space="preserve">
<g>
	<path d="M287.991,131.752L158.449,20.347c-4.861-4.175-12.036-4.175-16.897,0L12.009,131.752
		c-5.424,4.667-6.042,12.846-1.379,18.271c4.676,5.421,12.852,6.036,18.27,1.376L150,47.257l121.1,104.141
		c2.449,2.103,5.449,3.129,8.436,3.129c3.649,0,7.273-1.527,9.834-4.505C294.034,144.598,293.415,136.418,287.991,131.752z"/>
	<path d="M150,137.043c-16.075,0-29.149,13.075-29.149,29.149c0,16.074,13.075,29.152,29.149,29.152s29.149-13.078,29.149-29.152
		C179.149,150.118,166.075,137.043,150,137.043z"/>
	<path d="M154.23,65.419c-2.437-2.093-6.024-2.093-8.461,0l-97.622,84.208c-1.423,1.228-2.245,3.018-2.245,4.901v121.781
		c0,3.575,2.9,6.476,6.476,6.476h195.244c3.575,0,6.476-2.901,6.476-6.476V154.528c0-1.883-0.822-3.674-2.245-4.901L154.23,65.419z
		 M155.103,259.241c-1.225,1.574-3.105,2.496-5.103,2.496s-3.878-0.921-5.103-2.496c-5.115-6.547-49.955-64.799-49.955-93.048
		c0-30.362,24.702-55.058,55.058-55.058s55.058,24.696,55.058,55.058C205.058,194.442,160.217,252.694,155.103,259.241z"/>
</g>
</svg>