<svg xmlns="http://www.w3.org/2000/svg" width="101" height="107" viewBox="0 0 101 107" fill="none"><path d="M80.1838 49.2836C80.1838 33.9661 66.8941 21.5486 50.5001 21.5486C34.1061 21.5486 20.8164 33.9661 20.8164 49.2836C20.8164 64.6012 34.1061 77.0186 50.5001 77.0186C50.8355 77.0186 51.17 77.012 51.5026 77.0015L55.9771 83.4229L70.8606 69.465C71.3088 69.0702 71.7438 68.662 72.1645 68.2414L72.2033 68.2043H72.2005C77.1525 63.2491 80.1838 56.5984 80.1838 49.2836Z" fill="white"></path><path d="M90.7127 75.992C92.5614 69.4584 94.1239 62.8438 94.9436 56.0942C95.3624 52.649 95.5898 49.178 95.6221 45.7081C95.6543 42.2419 95.3226 38.8148 94.4139 35.4618C92.7926 29.4781 89.6334 23.9977 85.6289 19.308C81.7003 14.7067 76.7938 10.8876 71.403 8.16544C65.619 5.24447 59.2798 3.52899 52.8126 3.1779C46.3624 2.82776 39.7749 3.89435 33.7749 6.30154C28.0799 8.58599 22.8247 11.8847 18.3768 16.1358C13.9611 20.3565 10.4437 25.4591 8.09276 31.1051C6.81164 34.1812 5.98536 37.3942 5.61296 40.7072C5.23109 44.102 5.36375 47.5434 5.58453 50.9449C6.028 57.7668 7.24279 64.527 8.96263 71.1367C9.38525 72.7609 9.83251 74.3784 10.2892 75.993C10.511 76.776 11.396 77.3412 12.1977 77.0805C12.9917 76.8226 13.5186 76.0044 13.2807 75.1643C12.3711 71.9512 11.505 68.7257 10.7915 65.4632C10.4437 63.8705 10.1282 62.2701 9.84956 60.6631C9.70553 59.8325 9.57192 58.9999 9.44874 58.1655C9.39094 57.7764 9.33598 57.3863 9.28291 56.9971C9.28765 57.0342 9.3066 57.1769 9.28291 56.9933C9.2687 56.882 9.25354 56.7707 9.23933 56.6584C9.2109 56.4358 9.18342 56.2122 9.15594 55.9886C8.75891 52.7041 8.5277 49.3912 8.48411 46.0829C8.46232 44.4027 8.50685 42.7195 8.67741 41.0469C8.69731 40.848 8.721 40.6501 8.74375 40.4513C8.74564 40.4303 8.91241 39.3124 8.98538 38.9128C9.13225 38.1154 9.30945 37.3229 9.51507 36.5379C9.90926 35.0375 10.4124 33.5722 10.998 32.1365C11.1146 31.851 11.0388 32.0385 11.0122 32.0994C11.0511 32.009 11.0899 31.9176 11.1288 31.8273C11.197 31.6693 11.2671 31.5114 11.3373 31.3544C11.4879 31.0176 11.6443 30.6826 11.8044 30.3496C12.1133 29.7074 12.4402 29.0728 12.7823 28.4477C13.4788 27.1756 14.2406 25.9415 15.065 24.7494C15.2602 24.4668 15.4592 24.1861 15.662 23.9073C15.7634 23.7684 15.8648 23.6295 15.968 23.4915C16.0268 23.4126 16.0855 23.3345 16.1452 23.2556C16.1614 23.2346 16.3348 23.0072 16.2476 23.1205C16.1424 23.2565 16.33 23.0158 16.3518 22.9873C16.3973 22.9292 16.4428 22.8712 16.4883 22.8131C16.6105 22.659 16.7337 22.5058 16.8578 22.3536C17.0909 22.0672 17.3269 21.7846 17.5676 21.5049C19.4561 19.3023 21.5644 17.3051 23.8348 15.505C23.8661 15.4803 24.066 15.3252 23.8737 15.4745C23.9324 15.4289 23.9921 15.3842 24.0509 15.3385C24.1892 15.2329 24.3275 15.1282 24.4668 15.0245C24.7852 14.7876 25.1065 14.5545 25.4305 14.3261C26.018 13.9113 26.615 13.5107 27.2214 13.1244C28.4552 12.3376 29.7268 11.6097 31.0288 10.9437C31.6693 10.6154 32.3175 10.3024 32.9732 10.0037C33.2897 9.85904 33.609 9.72108 33.9274 9.58121C34.0913 9.5089 33.9284 9.58026 33.8999 9.59263C33.9919 9.55457 34.0838 9.51556 34.1757 9.4775C34.3661 9.39853 34.5566 9.32146 34.748 9.24535C36.2092 8.66591 37.7016 8.16735 39.2168 7.75061C40.7338 7.33292 42.2736 6.998 43.8258 6.74492C44.0096 6.71542 44.1944 6.68593 44.3792 6.65833C44.4455 6.64882 44.9344 6.57841 44.6795 6.61361C45.0756 6.55938 45.4736 6.51371 45.8706 6.47185C46.6391 6.39097 47.4104 6.33008 48.1818 6.28917C49.75 6.20734 51.323 6.20924 52.8903 6.29678C53.6512 6.33959 54.4102 6.40144 55.1682 6.48326C55.3767 6.5061 55.5852 6.52989 55.7936 6.55558C55.8619 6.56414 56.2437 6.61266 56.0059 6.58126C56.4219 6.63645 56.8369 6.70115 57.25 6.76965C60.2738 7.27107 63.2444 8.08457 66.1051 9.18921C66.4472 9.32146 66.7883 9.45847 67.1276 9.59834C67.1569 9.61071 67.4554 9.7363 67.3048 9.67255C67.1721 9.61642 67.409 9.71822 67.409 9.71822C67.626 9.81242 67.842 9.90756 68.0571 10.0046C68.7517 10.3186 69.4387 10.6497 70.1162 10.9979C71.4182 11.6668 72.6879 12.3994 73.9188 13.1929C74.5224 13.5821 75.1175 13.9846 75.7022 14.4013C75.9845 14.603 76.265 14.8076 76.5427 15.015C76.682 15.1187 76.8194 15.2243 76.9577 15.329C77.1586 15.4822 76.7976 15.2034 76.9965 15.3585C77.0742 15.4194 77.1529 15.4812 77.2306 15.5421C78.3772 16.4498 79.4792 17.4136 80.5319 18.4298C81.5828 19.4431 82.5834 20.5087 83.5282 21.6229C83.7537 21.8883 83.9754 22.1566 84.1943 22.4278C84.3042 22.5639 84.4142 22.7009 84.5231 22.8388C84.5857 22.9178 84.6473 22.9968 84.7088 23.0757C84.7648 23.1471 84.8415 23.248 84.742 23.1176C85.1987 23.7151 85.6394 24.3241 86.0648 24.9444C86.8864 26.1423 87.6492 27.382 88.3428 28.6598C88.701 29.3202 89.0412 29.9909 89.3614 30.6703C89.5112 30.9871 89.6561 31.3068 89.7964 31.6284C89.8267 31.6969 89.8561 31.7664 89.8864 31.8349C89.9006 31.8682 90.0219 32.1555 89.9546 31.9947C89.8949 31.8501 89.9887 32.0794 89.9916 32.086C90.039 32.2021 90.0863 32.3182 90.1318 32.4343C90.6833 33.8206 91.1505 35.2401 91.5238 36.6854C91.7266 37.4703 91.9009 38.2629 92.0469 39.0602C92.117 39.4456 92.1814 39.8328 92.2373 40.221C92.2421 40.2505 92.2885 40.5921 92.2676 40.4303C92.2487 40.2895 92.2838 40.5626 92.2828 40.5569C92.3093 40.7795 92.3349 41.0022 92.3577 41.2248C92.6959 44.5587 92.5263 47.9735 92.2932 51.3103C92.1776 52.9648 92.0203 54.6156 91.8176 56.2616C91.7901 56.4843 91.7616 56.706 91.7323 56.9286C91.737 56.8915 91.7569 56.7469 91.7323 56.9305C91.7171 57.0418 91.702 57.1522 91.6868 57.2626C91.629 57.6784 91.5683 58.0932 91.5039 58.5071C91.3807 59.3073 91.2481 60.1065 91.1059 60.9038C90.527 64.1473 89.7945 67.3614 88.971 70.5497C88.5721 72.0929 88.1523 73.6305 87.7183 75.1633C87.4966 75.9464 87.9893 76.894 88.8014 77.0795C89.6296 77.2689 90.4748 76.8312 90.7127 75.992Z" fill="#0A2148"></path><path d="M53.7441 104.1C61.0253 102.981 67.9871 100.027 73.88 95.5939C79.5986 91.2933 84.3848 85.7492 87.6038 79.3278C89.4657 75.6133 90.8132 71.6448 91.5333 67.5487C91.63 66.9969 91.3855 66.4298 90.8113 66.2709C90.3119 66.133 89.6363 66.4412 89.5387 66.9959C88.3182 73.9435 85.286 80.5209 80.8693 86.0042C76.537 91.3828 70.9909 95.7747 64.7255 98.6624C61.0717 100.346 57.1667 101.486 53.1955 102.096C52.643 102.181 52.3379 102.878 52.4734 103.374C52.6345 103.968 53.1898 104.186 53.7441 104.1Z" fill="#002A5C"></path><path d="M86.5182 15.6486C83.0339 11.9341 78.9044 8.72202 74.4527 6.26155C69.8949 3.74209 64.9002 1.87247 59.7805 0.918162C57.0173 0.403424 54.1983 0.069462 51.3869 0.00952017C48.5034 -0.0513731 45.6502 0.218841 42.7999 0.641288C37.6044 1.41007 32.5984 3.1598 27.9259 5.54986C22.9378 8.09977 18.3251 11.5669 14.4807 15.6505C13.6459 16.5373 13.1172 17.7219 13.1172 18.9549C13.1172 20.1015 13.6241 21.4706 14.4807 22.2594C15.3677 23.0767 16.5322 23.6837 17.7717 23.6285C18.9865 23.5743 20.206 23.1699 21.0626 22.2594C22.663 20.5601 24.3895 18.9892 26.2278 17.5544C25.9142 17.798 25.5996 18.0415 25.2859 18.2851C28.4811 15.8085 31.9872 13.7647 35.7026 12.1834C35.3321 12.3404 34.9616 12.4974 34.5911 12.6544C38.1862 11.1378 41.9604 10.1054 45.8246 9.57643C45.4124 9.63161 45.0002 9.68775 44.5871 9.74293C48.5053 9.22058 52.4699 9.22439 56.3881 9.75055C55.976 9.69536 55.5638 9.63923 55.1506 9.58404C59.12 10.1321 63.0003 11.2053 66.6911 12.7686C66.3206 12.6116 65.9501 12.4546 65.5796 12.2976C69.1747 13.8352 72.5585 15.8256 75.6523 18.2233C75.3387 17.9797 75.0241 17.7361 74.7104 17.4926C76.5724 18.9445 78.3197 20.5363 79.9363 22.2594C80.7398 23.1157 82.0702 23.6285 83.2272 23.6285C84.3691 23.6285 85.7326 23.1195 86.5182 22.2594C87.3321 21.3688 87.9367 20.1995 87.8817 18.9549C87.8249 17.6924 87.3909 16.5782 86.5182 15.6486Z" fill="#042650"></path><path d="M97.9216 56.9609L93.6282 79.1384C93.053 82.107 90.1904 84.047 87.2311 83.4695C84.2747 82.8919 82.3425 80.0176 82.9177 77.0481L87.2112 54.8706C87.7864 51.8992 90.6499 49.9601 93.6064 50.5376C95.0846 50.8259 96.3098 51.6889 97.0887 52.8525C97.8704 54.0123 98.2087 55.4766 97.9216 56.9609Z" fill="#002A5C"></path><path d="M100.715 69.0131C99.8377 73.5458 97.0916 77.1309 93.7031 78.7493L97.8459 57.3472C100.384 60.1236 101.593 64.4803 100.715 69.0131Z" fill="white"></path><path d="M3.07774 56.9609L7.3712 79.1384C7.94637 82.107 10.809 84.047 13.7683 83.4695C16.7247 82.8919 18.6568 80.0176 18.0816 77.0481L13.7882 54.8706C13.213 51.8992 10.3494 49.9601 7.39299 50.5376C5.91478 50.8259 4.68956 51.6889 3.91066 52.8525C3.12891 54.0123 2.79063 55.4766 3.07774 56.9609Z" fill="#002A5C"></path><path d="M0.284229 69.013C1.16168 73.5458 3.90775 77.1309 7.29628 78.7493L3.15348 57.3481C0.61588 60.1235 -0.593224 64.4803 0.284229 69.013Z" fill="white"></path><path d="M56.6495 106.079L51.3648 106.956C49.5986 107.249 47.9289 106.05 47.6371 104.275L47.5556 103.779C47.2637 102.006 48.4586 100.329 50.2259 100.036L55.5105 99.1591C56.6106 98.9764 57.6501 99.7242 57.832 100.829L58.3125 103.748C58.4944 104.853 57.7496 105.896 56.6495 106.079Z" fill="#0A2148"></path><path d="M51.6333 52.0254C53.1414 51.3982 53.8575 49.6622 53.2328 48.148C52.6082 46.6337 50.8792 45.9147 49.3712 46.5419C47.8631 47.1691 47.147 48.9051 47.7717 50.4194C48.3964 51.9336 50.1253 52.6527 51.6333 52.0254Z" fill="#0A2148"></path><path d="M64.207 51.3819C65.3611 50.223 65.3611 48.344 64.207 47.1851C63.0528 46.0262 61.1815 46.0262 60.0273 47.1851C58.8731 48.344 58.8731 50.223 60.0273 51.3819C61.1815 52.5408 63.0528 52.5408 64.207 51.3819Z" fill="#0A2148"></path><path d="M40.9726 51.3818C42.1268 50.2229 42.1268 48.344 40.9726 47.1851C39.8184 46.0261 37.9471 46.0262 36.7929 47.1851C35.6388 48.344 35.6388 50.2229 36.7929 51.3818C37.9471 52.5407 39.8184 52.5407 40.9726 51.3818Z" fill="#0A2148"></path></svg>